<svg width="800" height="159" fill="none" xmlns="http://www.w3.org/2000/svg"><path d="M40.942 131.727A66.907 66.907 0 010 117.332l11.575-17.805a64.012 64.012 0 0015.572 8.555 42.135 42.135 0 0014.503 2.847c3.916 0 6.804-.655 8.635-1.965a6.025 6.025 0 002.767-5.159v-.361a5.127 5.127 0 00-1.604-3.73 13.58 13.58 0 00-4.358-2.766 66.933 66.933 0 00-6.322-2.22 465.522 465.522 0 01-7.485-2.312 102.006 102.006 0 01-10.052-3.475 35.72 35.72 0 01-9.17-5.346 26.026 26.026 0 01-6.683-8.087 24.54 24.54 0 01-2.58-11.75v-.36a28.07 28.07 0 0110.266-22.456 32.078 32.078 0 0111.04-5.881A46.09 46.09 0 0139.7 33.123a60.967 60.967 0 0118.419 2.94 67.89 67.89 0 0117.19 8.1L64.974 62.876a85.188 85.188 0 00-13.821-6.536 36.235 36.235 0 00-11.923-2.406 12.377 12.377 0 00-7.472 1.872 5.653 5.653 0 00-2.5 4.718v.347a4.637 4.637 0 001.604 3.476 17.213 17.213 0 004.278 2.847c1.99.983 4.04 1.845 6.135 2.58 2.317.837 4.78 1.67 7.392 2.5a116.466 116.466 0 0110.145 3.822 41.678 41.678 0 019.25 5.427 27.135 27.135 0 016.776 7.833 22.136 22.136 0 012.674 11.214v.361c.12 4.746-.821 9.458-2.754 13.794a25.398 25.398 0 01-7.753 9.531 34.852 34.852 0 01-11.655 5.6 53.04 53.04 0 01-14.41 1.871zM87.497 34.527h27.054v13.647a57.734 57.734 0 015.079-5.828 35.079 35.079 0 016.136-4.932 30.478 30.478 0 017.565-3.409 32.792 32.792 0 019.357-1.256 32.21 32.21 0 0116.293 3.943 26.623 26.623 0 0110.587 11.295 43.502 43.502 0 0113.914-11.375 38.15 38.15 0 0117.377-3.863c10.096 0 17.991 2.967 23.685 8.902 5.694 5.935 8.55 14.677 8.568 26.225v62.128h-27.054V76.859c0-6.407-1.367-11.233-4.103-14.476-2.736-3.244-6.666-4.875-11.789-4.893a15.277 15.277 0 00-12.03 4.893c-2.896 3.243-4.349 8.068-4.358 14.476v53.091h-27V76.859c0-6.407-1.368-11.233-4.104-14.476-2.735-3.244-6.652-4.875-11.749-4.893a15.291 15.291 0 00-12.03 4.893c-2.905 3.243-4.357 8.068-4.357 14.476v53.091h-27.04V34.527zM283.397 131.727a66.912 66.912 0 01-40.941-14.396l11.575-17.804a64.252 64.252 0 0015.572 8.555 42.252 42.252 0 0014.516 2.847c3.921 0 6.799-.655 8.635-1.965a6.037 6.037 0 002.753-5.16v-.361a5.114 5.114 0 00-1.604-3.729 13.576 13.576 0 00-4.357-2.767 65.6 65.6 0 00-6.323-2.219 330.302 330.302 0 01-7.471-2.312c-3.414-.98-6.774-2.14-10.065-3.475a35.932 35.932 0 01-9.17-5.347 26.21 26.21 0 01-6.683-8.087 24.546 24.546 0 01-2.58-11.749v-.36a29.021 29.021 0 012.754-12.913 28.67 28.67 0 017.485-9.517c3.252-2.668 7-4.667 11.027-5.88a46.092 46.092 0 0113.634-1.966 61.12 61.12 0 0118.433 2.94 67.798 67.798 0 0117.176 8.1L307.43 62.877a85.138 85.138 0 00-13.888-6.496 36.18 36.18 0 00-11.923-2.406 12.401 12.401 0 00-7.471 1.871 5.649 5.649 0 00-2.446 4.679v.347a4.636 4.636 0 001.604 3.475 17.466 17.466 0 004.277 2.847 54.84 54.84 0 006.135 2.58c2.326.838 4.79 1.671 7.392 2.5a112.372 112.372 0 0110.145 3.823 41.763 41.763 0 019.263 5.426 27.084 27.084 0 016.763 7.833 22.137 22.137 0 012.674 11.215v.361c.109 4.75-.85 9.464-2.807 13.794a25.497 25.497 0 01-7.739 9.53 35.095 35.095 0 01-11.656 5.601 53.176 53.176 0 01-14.356 1.871zM327.734 34.528h27.054v13.714a42.68 42.68 0 0112.03-11.121c4.678-2.914 10.581-4.371 17.71-4.371a42.392 42.392 0 0116.201 3.208 40.241 40.241 0 0113.887 9.517 48.116 48.116 0 019.704 15.492 57.001 57.001 0 013.649 21.092v.361a56.935 56.935 0 01-3.649 21.092 48.449 48.449 0 01-9.623 15.492 39.152 39.152 0 01-13.795 9.517 42.765 42.765 0 01-16.374 3.208c-7.244 0-13.21-1.426-17.897-4.277a47.902 47.902 0 01-11.83-9.958v40.941h-27.067V34.528zm49.844 74.237c3.093.02 6.154-.618 8.982-1.871a22.396 22.396 0 007.392-5.346 25.913 25.913 0 005.066-8.288 29.494 29.494 0 001.871-10.853v-.361a29.683 29.683 0 00-1.871-10.76 25.402 25.402 0 00-5.066-8.368 22.232 22.232 0 00-7.392-5.346 22.522 22.522 0 00-17.978 0 21.22 21.22 0 00-7.298 5.346 26.45 26.45 0 00-4.986 8.368 29.971 29.971 0 00-1.871 10.76v.36a30.023 30.023 0 001.871 10.774 26.739 26.739 0 004.959 8.381 21.404 21.404 0 007.298 5.347 21.873 21.873 0 009.023 1.857zM541.599 34.527h27.053v19.235a39.72 39.72 0 0111.215-15.666c4.75-3.912 11.161-5.694 19.234-5.346v28.31h-1.43c-9.018 0-16.107 2.727-21.266 8.18-5.16 5.454-7.744 13.942-7.753 25.463v35.248h-27.053V34.527zM647.301 131.553a44.796 44.796 0 01-11.308-1.337 20.131 20.131 0 01-8.715-4.718 22.724 22.724 0 01-5.694-8.809 39.3 39.3 0 01-2.059-13.807V57.676h-11.388v-23.15h11.388V10.143h27.067v24.381h22.429v23.15h-22.389v40.943c0 6.237 2.905 9.334 8.715 9.289a26.442 26.442 0 0013.367-3.555v21.72a40.837 40.837 0 01-21.387 5.521l-.026-.04zM708.052 131.728a42.487 42.487 0 01-12.738-1.871 29.968 29.968 0 01-10.413-5.601 26.966 26.966 0 01-7.031-9.169 28.89 28.89 0 01-2.58-12.551v-.361a29.971 29.971 0 012.847-13.527 26.063 26.063 0 017.927-9.437 35.67 35.67 0 0112.03-5.6 60.244 60.244 0 0115.585-1.872 65.86 65.86 0 0112.725 1.07c3.591.7 7.129 1.65 10.586 2.847V74.05c0-5.694-1.719-10.024-5.159-12.992-3.44-2.967-8.541-4.45-15.305-4.45a63.17 63.17 0 00-13.794 1.336 91.83 91.83 0 00-12.551 3.823l-6.697-20.625a107.602 107.602 0 0116.374-5.52 86.6 86.6 0 0120.651-2.139 58.278 58.278 0 0119.128 2.767 33.91 33.91 0 0113.086 7.926 31.872 31.872 0 017.833 13.073 56.275 56.275 0 012.499 17.376v55.364h-26.198v-10.332a37.704 37.704 0 01-11.923 8.822 39.313 39.313 0 01-16.882 3.248zm8.18-18.713c6.416 0 11.549-1.546 15.398-4.638a14.705 14.705 0 005.788-12.097v-4.812a41.44 41.44 0 00-7.926-2.58 42.371 42.371 0 00-9.357-.975c-5.81 0-10.377 1.127-13.701 3.381a11.097 11.097 0 00-4.985 9.785v.36a10.007 10.007 0 004.09 8.542 17.526 17.526 0 0010.693 3.061v-.027zM772.946 0H800v129.949h-27.054V0z" fill="#2C3F50"/><path d="M519.223 47.639a47.557 47.557 0 00-34.873-14.516 48.467 48.467 0 00-35.235 14.409 46.594 46.594 0 00-14.703 34.499c0 15.238 5.378 27.557 16.134 36.958a50.256 50.256 0 0068.623-1.604 46.784 46.784 0 0014.704-34.753 47.58 47.58 0 00-14.65-34.993zm-24.407 59.321a26.2 26.2 0 1113.125-13.113l10.787 23.899-23.912-10.786z" fill="#43DFC7"/></svg>